{
  "source": "C:\\Users\\Peter\\Desktop\\stuff\\MIUN\\quantitative_research\\video_compression\\videos\\BVI-HD\\BVI-HD_CDVL_videos\\ORIG\\Toys_1920x1080_30fps.mp4",
  "output": "C:\\Users\\Peter\\Desktop\\stuff\\MIUN\\quantitative_research\\video_compression\\compressed_videos\\BVI-HD\\av1\\3\\Toys_1920x1080_30fps_av1.mkv",
  "codec": "av1",
  "ok": "Input #0, mov,mp4,m4a,3gp,3g2,mj2, from 'C:\\Users\\Peter\\Desktop\\stuff\\MIUN\\quantitative_research\\video_compression\\videos\\BVI-HD\\BVI-HD_CDVL_videos\\ORIG\\Toys_1920x1080_30fps.mp4':\n  Metadata:\n    major_brand     : isom\n    minor_version   : 512\n    compatible_brands: isomiso2avc1mp41\n    encoder         : Lavf54.28.101\n  Duration: 00:00:05.00, start: 0.000000, bitrate: 270887 kb/s\n  Stream #0:0[0x1](und): Video: h264 (High 4:4:4 Predictive) (avc1 / 0x31637661), yuv420p(progressive), 1920x1080, 270883 kb/s, 30 fps, 30 tbr, 30 tbn (default)\n    Metadata:\n      handler_name    : VideoHandler\n      vendor_id       : [0][0][0][0]\n[out#0/matroska @ 000001a7b57d0c00] Codec AVOption b:a (set bitrate (in bits/s)) has not been used for any stream. The most likely reason is either wrong type (e.g. a video option with no video streams) or that it is a private option of some decoder which was not actually used for any stream.\nStream mapping:\n  Stream #0:0 -> #0:0 (h264 (native) -> av1 (libsvtav1))\nPress [q] to stop, [?] for help\nSvt[info]: -------------------------------------------\nSvt[info]: SVT [version]:\tSVT-AV1 Encoder Lib v3.1.0-19-g6ecfe8ec\nSvt[info]: SVT [build]  :\tGCC 15.2.0\t 64 bit\nSvt[info]: LIB Build date: Aug 17 2025 11:37:13\nSvt[info]: -------------------------------------------\nSvt[info]: Level of Parallelism: 5\nSvt[info]: Number of PPCS 93\nSvt[info]: [asm level on system : up to avx2]\nSvt[info]: [asm level selected : up to avx2]\nSvt[info]: -------------------------------------------\nSvt[info]: SVT [config]: main profile\ttier (auto)\tlevel (auto)\nSvt[info]: SVT [config]: width / height / fps numerator / fps denominator \t\t: 1920 / 1080 / 30 / 1\nSvt[info]: SVT [config]: bit-depth / color format \t\t\t\t\t: 8 / YUV420\nSvt[info]: SVT [config]: preset / tune / pred struct \t\t\t\t\t: 4 / PSNR / random access\nSvt[info]: SVT [config]: gop size / mini-gop size / key-frame type \t\t\t: 161 / 16 / key frame\nSvt[info]: SVT [config]: BRC mode / target bitrate (kbps)\t\t\t\t: VBR / 3000 \nSvt[info]: SVT [config]: AQ mode / Variance Boost \t\t\t\t\t: 2 / 0\nSvt[info]: SVT [config]: sharpness / luminance-based QP bias \t\t\t\t: 0 / 0\nSvt[info]: SVT [config]: QP scale compress strength \t\t\t\t\t: 0\nSvt[info]: -------------------------------------------\nOutput #0, matroska, to 'C:\\Users\\Peter\\Desktop\\stuff\\MIUN\\quantitative_research\\video_compression\\compressed_videos\\BVI-HD\\av1\\3\\Toys_1920x1080_30fps_av1.mkv':\n  Metadata:\n    major_brand     : isom\n    minor_version   : 512\n    compatible_brands: isomiso2avc1mp41\n    encoder         : Lavf62.3.100\n  Stream #0:0(und): Video: av1 (AV01 / 0x31305641), yuv420p(tv, progressive), 1920x1080, q=2-31, 3000 kb/s, 30 fps, 1k tbn (default)\n    Metadata:\n      encoder         : Lavc62.11.100 libsvtav1\n      handler_name    : VideoHandler\n      vendor_id       : [0][0][0][0]\n    Side data:\n      cpb: bitrate max/min/avg: 0/0/3000000 buffer size: 3000000 vbv_delay: N/A\nframe=    0 fps=0.0 q=0.0 size=       0KiB time=N/A bitrate=N/A speed=N/A elapsed=0:00:01.72    \nframe=    0 fps=0.0 q=0.0 size=       0KiB time=N/A bitrate=N/A speed=N/A elapsed=0:00:02.32    \nframe=    0 fps=0.0 q=0.0 size=       0KiB time=N/A bitrate=N/A speed=N/A elapsed=0:00:02.92    \nframe=    0 fps=0.0 q=0.0 size=       0KiB time=N/A bitrate=N/A speed=N/A elapsed=0:00:03.51    \nframe=    0 fps=0.0 q=0.0 size=       0KiB time=N/A bitrate=N/A speed=N/A elapsed=0:00:04.14    \nframe=    0 fps=0.0 q=0.0 size=       0KiB time=N/A bitrate=N/A speed=N/A elapsed=0:00:04.70    \nframe=    1 fps=0.2 q=23.0 size=       1KiB time=00:00:00.00 bitrate=N/A speed=   0x elapsed=0:00:05.22    \nframe=    1 fps=0.2 q=23.0 size=       1KiB time=00:00:00.00 bitrate=N/A speed=   0x elapsed=0:00:05.75    \nframe=    1 fps=0.2 q=23.0 size=       1KiB time=00:00:00.00 bitrate=N/A speed=   0x elapsed=0:00:06.34    \nframe=    1 fps=0.1 q=23.0 size=       1KiB time=00:00:00.00 bitrate=N/A speed=   0x elapsed=0:00:06.87    \nframe=    3 fps=0.4 q=40.0 size=       1KiB time=00:00:00.06 bitrate=  85.6kbits/s speed=0.00901x elapsed=0:00:07.39    \nframe=    7 fps=0.9 q=40.0 size=       1KiB time=00:00:00.20 bitrate=  28.5kbits/s speed=0.0253x elapsed=0:00:07.90    \nframe=    8 fps=0.9 q=41.0 size=       1KiB time=00:00:00.23 bitrate=  24.4kbits/s speed=0.0276x elapsed=0:00:08.45    \nframe=   12 fps=1.3 q=40.0 size=       1KiB time=00:00:00.36 bitrate=  15.6kbits/s speed=0.0407x elapsed=0:00:09.00    \nframe=   16 fps=1.7 q=40.0 size=       1KiB time=00:00:00.50 bitrate=  11.4kbits/s speed=0.0522x elapsed=0:00:09.58    \nframe=   19 fps=1.9 q=40.0 size=       1KiB time=00:00:00.60 bitrate=   9.5kbits/s speed=0.0591x elapsed=0:00:10.15    \nframe=   23 fps=2.1 q=40.0 size=       1KiB time=00:00:00.73 bitrate=   7.8kbits/s speed=0.0683x elapsed=0:00:10.73    \nframe=   25 fps=2.2 q=34.0 size=       1KiB time=00:00:00.80 bitrate=   7.1kbits/s speed=0.0711x elapsed=0:00:11.25    \nframe=   29 fps=2.5 q=35.0 size=       1KiB time=00:00:00.93 bitrate=   6.1kbits/s speed=0.0791x elapsed=0:00:11.80    \nframe=   32 fps=2.6 q=40.0 size=       1KiB time=00:00:01.03 bitrate=   5.5kbits/s speed=0.0835x elapsed=0:00:12.37    \nframe=   36 fps=2.8 q=41.0 size=       1KiB time=00:00:01.16 bitrate=   4.9kbits/s speed=0.0904x elapsed=0:00:12.90    \nframe=   39 fps=2.9 q=40.0 size=       1KiB time=00:00:01.26 bitrate=   4.5kbits/s speed=0.0944x elapsed=0:00:13.42    \nframe=   42 fps=3.0 q=40.0 size=       1KiB time=00:00:01.33 bitrate=   4.3kbits/s speed=0.0955x elapsed=0:00:13.96    \nframe=   46 fps=3.2 q=40.0 size=       1KiB time=00:00:01.50 bitrate=   3.8kbits/s speed=0.103x elapsed=0:00:14.51    \nframe=   50 fps=3.3 q=40.0 size=       1KiB time=00:00:01.60 bitrate=   3.6kbits/s speed=0.106x elapsed=0:00:15.10    \nframe=   55 fps=3.5 q=39.0 size=       1KiB time=00:00:01.80 bitrate=   3.2kbits/s speed=0.115x elapsed=0:00:15.65    \nframe=   57 fps=3.5 q=33.0 size=       1KiB time=00:00:01.86 bitrate=   3.1kbits/s speed=0.115x elapsed=0:00:16.28    \nframe=   61 fps=3.6 q=35.0 size=       1KiB time=00:00:02.00 bitrate=   2.9kbits/s speed=0.119x elapsed=0:00:16.86    \nframe=   65 fps=3.7 q=25.0 size=       1KiB time=00:00:02.13 bitrate=   2.7kbits/s speed=0.123x elapsed=0:00:17.38    \nframe=   69 fps=3.9 q=38.0 size=       1KiB time=00:00:02.26 bitrate=   2.5kbits/s speed=0.127x elapsed=0:00:17.90    \nframe=   73 fps=4.0 q=34.0 size=       1KiB time=00:00:02.40 bitrate=   2.4kbits/s speed=0.13x elapsed=0:00:18.43    \nframe=   75 fps=4.0 q=38.0 size=       1KiB time=00:00:02.46 bitrate=   2.3kbits/s speed=0.13x elapsed=0:00:18.98    \nframe=   79 fps=4.0 q=38.0 size=       1KiB time=00:00:02.60 bitrate=   2.2kbits/s speed=0.133x elapsed=0:00:19.53    \nframe=   83 fps=4.1 q=40.0 size=       1KiB time=00:00:02.73 bitrate=   2.1kbits/s speed=0.136x elapsed=0:00:20.08    \nframe=   87 fps=4.2 q=40.0 size=       1KiB time=00:00:02.86 bitrate=   2.0kbits/s speed=0.139x elapsed=0:00:20.62    \nframe=   89 fps=4.2 q=34.0 size=       1KiB time=00:00:02.93 bitrate=   1.9kbits/s speed=0.139x elapsed=0:00:21.14    \nframe=   93 fps=4.3 q=34.0 size=       1KiB time=00:00:03.06 bitrate=   1.9kbits/s speed=0.141x elapsed=0:00:21.70    \nframe=   97 fps=4.4 q=26.0 size=       1KiB time=00:00:03.20 bitrate=   1.8kbits/s speed=0.144x elapsed=0:00:22.23    \nframe=  101 fps=4.4 q=38.0 size=       1KiB time=00:00:03.33 bitrate=   1.7kbits/s speed=0.146x elapsed=0:00:22.76    \nframe=  105 fps=4.5 q=34.0 size=       1KiB time=00:00:03.46 bitrate=   1.6kbits/s speed=0.149x elapsed=0:00:23.30    \nframe=  105 fps=4.4 q=34.0 size=       1KiB time=00:00:03.46 bitrate=   1.6kbits/s speed=0.146x elapsed=0:00:23.81    \nframe=  109 fps=4.5 q=34.0 size=       1KiB time=00:00:03.60 bitrate=   1.6kbits/s speed=0.148x elapsed=0:00:24.35    \nframe=  113 fps=4.5 q=26.0 size=       1KiB time=00:00:03.73 bitrate=   1.5kbits/s speed=0.15x elapsed=0:00:24.91    \nframe=  117 fps=4.6 q=38.0 size=       1KiB time=00:00:03.86 bitrate=   1.5kbits/s speed=0.152x elapsed=0:00:25.46    \nframe=  121 fps=4.7 q=34.0 size=       1KiB time=00:00:04.00 bitrate=   1.4kbits/s speed=0.154x elapsed=0:00:25.99    \nframe=  121 fps=4.6 q=34.0 size=       1KiB time=00:00:04.00 bitrate=   1.4kbits/s speed=0.151x elapsed=0:00:26.50    \nframe=  125 fps=4.6 q=37.0 size=       1KiB time=00:00:04.13 bitrate=   1.4kbits/s speed=0.153x elapsed=0:00:27.04    \nframe=  131 fps=4.7 q=41.0 size=       1KiB time=00:00:04.33 bitrate=   1.3kbits/s speed=0.157x elapsed=0:00:27.59    \nframe=  137 fps=4.9 q=37.0 size=       1KiB time=00:00:04.53 bitrate=   1.3kbits/s speed=0.161x elapsed=0:00:28.14    \nframe=  139 fps=4.8 q=41.0 size=       1KiB time=00:00:04.60 bitrate=   1.2kbits/s speed=0.16x elapsed=0:00:28.70    \n[out#0/matroska @ 000001a7b57d0c00] video:1837KiB audio:0KiB subtitle:0KiB other streams:0KiB global headers:0KiB muxing overhead: 0.077225%\nframe=  150 fps=5.1 q=41.0 Lsize=    1839KiB time=00:00:04.96 bitrate=3033.0kbits/s speed=0.17x elapsed=0:00:29.15    \n",
  "seconds": 29.76331090927124,
  "probe_out": {}
}